<?xml version="1.0" encoding="UTF-8"?>
<svg id="Layer_1" data-name="Layer 1" xmlns="http://www.w3.org/2000/svg" viewBox="0 0 192 192">
  <path d="M23.95,98.28c.11.09.14-.16.15-.16.12.01.96,1.6,1.19,1.93,1.61,2.36,4.04,4.23,6.93,5.08l-.16.15c.53.06,1.11.33,1.62.4,4.06.57,7.94-.85,10.94-3.37.37-.01.19,1.44.54,1.8.15.16,1,.29,1.05-.03-.31,0-.55.11-.81-.13.72.14,1.15-.29,1.72-.47.69-.22,2.4-.57,2.91-.89.59-.37.1-.98.1-1.44.04-3.83-.38-7.99-.21-11.81.03-.72.4-1.6.42-2.15,0-.25-.08-.23-.17-.35-.08-.11-.08-.22-.28-.26-2.37.28-4.81.58-7.18.97-.39.07-.76.24-1.15.31-.69.12-3.55.35-3.91.75-.09.1.17.13.17.14-.01.07-.69.7-.93,1.09-.43.7-1.21,2.7-1.31,3.49-.05.41.06.47.16.79.11-.03.22-.06.34-.1-.11.04-.22.08-.34.1,0,0-.31.12-.07.16.84-.09,1.62-.65,2.41-.94,1.7.12,3.7-.73,5.35-.76.13,0,.33.04.33.15l.15,4.61s-.57.13-.63.4l.16.07c-.64.54-1.3,1.17-2.05,1.58-.17-.31-.5-.04-.7.04-1.51.63-2.83.92-4.51.88l-3.49-.8c-.94-.52-1.96-1.58-2.5-2.5l-.88-2.94c-.11-1.3-.13-2.59.06-3.88l.81-3.47c.95-1.91,2.53-3.79,4.36-4.98.11.3.48-.01.64-.09,2.99-1.48,4.85-1.75,8.04-.56.17.06.55.37.64.06,1.41.76,1.82,1.52,2.63,2.75.06.09.03.3.28.18.11-.05.76-1.35.96-1.65.63-.93,2.27-2.7,2.58-3.62.18-.55-.01-.54-.27-.89-.45-.62-1.14-.8-1.65-1.31-.02-.02.28-.06-.21-.33-.67-.36-1.33-.53-2.07-.66-.17-.26-.46-.24-.73-.29-5.29-.95-10.34-.8-14.59,2.74-.06.05-.54.42-.22.46-2.21,1.68-3.75,3.44-5.14,5.77-.12.21-.44,1.05-.61,1.08-.01,0-.06-.24-.16-.15-.61.55-1.67,5.49-1.73,6.49-.06,1.05.3,5.99,1.02,6.55ZM49.84,87.19s.03.03.03.04c0,.03-.02.12-.06.23.01-.09.02-.18.04-.27ZM49.48,87.03s0,0,.01,0c-.01,0-.02,0-.04,0,0,0,.01,0,.02,0Z"/>
  <path d="M118.85,96.32l.03-1.08c-1.31-.36-2.09,1.07-3.28.72-.16-.05-.28-.27-.34-.29.46-.15-.19-.29-.3-.32-2.54-.81-4.29-.41-6.76.34-.12.04-.77.11-.33.3-2.4.92-4.63,3.17-6.27,5.03-.12.13-.27.24-.37.35-3.15,3.64-5.07,14.19-1.44,17.96.53.55.75,1.15,1.3,1.66.42.39,2.89,1.72,2.91,1.89,0,.01-.29.05-.18.17.77.91,7.35,1.07,8.58-.08l-.11-.2c2.23-.85,4.59-2.4,5.54-4.69.04-.11.08-.23.11-.34-.04.13-.07.25-.11.34.13.47.38-.34.4-.41.94-2.79.25-6.36.41-9.2.05-.89,1.51-2.3.65-2.86-.71-.46-4.1.71-5.07.93-.92.2-3.56.4-4.16.78-.75.48-.21,1.03-.23,1.61-.03.77-.26,1.2-.25,2.06,0,.41.07.55.15.9,0,0-.35.12-.09.18,1.14.16,2.14-.45,3.25-.44.26.04-.09.23-.1.27l-.16,5.22c-.03,1.15-3.59,1.21-4.43,1.02l-1.71-.58c-.15-.14-.21-.16-.35-.37.38-.11,0-.53-.07-.72-1.7-4.4-1.25-6.99.41-11.27.09-.23.42-.6.05-.78.59-1.15,1.41-2.18,2.43-2.99.1.4.51-.03.67-.12,1.38-.82,2.06-1.1,3.75-.81.78.13,1.65.96,2.43.6,1.02.55,1.4,1.42,2.65,1.7.02,0,.04.16.09.16.49-.43.52-1.23.51-1.86,0-.23-.17-.47-.17-.54l.12-3.96c0-.2.39-.76.21-1.16h-.18c.15.35-.18.73-.21.89ZM109.83,111.52h-.08c.05-.09.08-.21.12-.32-.02.13-.03.24-.04.32Z"/>
  <path d="M167.25,85.02c-.53-.35-7.15,1.14-8.34,1.03-1.45.86.76,1.89.49,3.13-.69,6.96.36,15.05-1.01,21.84-.09.42-.93,1.95-.4,2.3.54.36,7.17-1.76,8.37-1.73.78-.44.13-1.16-.01-1.59-.71-2.12-.12-7.29-.06-9.82.1-3.87-.14-8.39.36-12.23.08-.61,1.02-2.65.6-2.93ZM165.62,85.62c.28-.04.56-.08.84-.1.06,0,.09,0,.13,0-.32.03-.65.07-.97.11Z"/>
  <path d="M100.64,92.3c5.75-1.32,11.44-2.94,17.25-3.96.88-.49.75-2.03.75-3.19.05-.43.09-.87.13-1.29.16-.82.41-1.93.25-2.31-.25-.34-.24,0-.27,0-.7.05-.95.25-1.46.68-.47.04-.85.35-1.28.5-.36-.31-1.26.06-1.66.18-1.98.58-3.95,1.24-5.95,1.77-.4.09-.81.2-1.21.29-.26-.2-.21-3.65-.12-4.04.05-.25.14-.42.38-.52.82-.76,8.51-1.65,8.52-2.09l.13-4.23s0-.07,0-.11c.02-.26.39-.9.22-1.33l-.36.17c-.02-.29.05-.42-.35-.37l-8.18,2.45c.45-1.62.03-3.27.32-4.91.11-.45,4.84-1.31,5.56-1.37,1.77-.15,2.71.16,4.3.29,1.61.13,1.01-1.22,1.04-2.21.03-.82.27-2.96-.07-3.52-.52-.88-2.68.04-3.57.2-4.67.84-9.31,1.89-13.93,3.03l.11.2c-.99.29-.58.66-.58,1.24.01,1.26.38,2.55.43,3.88.08,2.27-.23,4.73-.23,7.03,0,3.96.64,7.15-.56,11.09-.31,1.01-1.69,2.72.38,2.45Z"/>
  <path d="M52.76,108.19c-.22-.24-.31-.21-.61-.21-2.24.04-4.88.81-7.15.97-.52.21-1.6,2.41-1.99,3.08-.1.17-.45.61-.11.72-1.46,2.43-2.86,4.9-4.35,7.32l-.37.1c-.77-1.47-1.7-2.89-2.61-4.28-.93-1.42-2.29-3.1-3.07-4.54-.1-.19-.3-.55-.34-.73,0-.01.17-.08.19-.17l-.45-.1c-1.16.2-8.06-.21-8.49.36-.14.19-.13.57-.09.8.07.41.33.11.34.12.31.24.69.76.87,1.11-.25.42.12.98.14,1.53.13,3.5-.32,7.18-.52,10.61-.13,2.38.12,5.6-.41,7.83-.21.87-.72,1.37-.79,2.32-.03.46-.48.73.61.75,1.32.03,2.86-.33,4.16-.43,1.27-.1,2.01-.06,3.34-.26.03,0,.26.38.54-.08.05-.21-.83-2.23-.81-2.9l.32-10.61c0-.17.12-.37.03-.61h.35c1.83,3.01,4.16,5.76,5.96,8.8l.43.2,5.65-9.32c.22-.34.51-.64.78-.93.04-.04.56.09.56-.7h.18s-.37,12.33-.37,12.33c-.02.65-.74,1.68-.79,2.41-.02.21.02.57.16.73.16.19.18.19.43.2.98-.3,7.76-.63,7.89-1.15.06-.87-.51-1.5-.61-2.38-.37-3.14.04-6.68.08-9.86.04-2.86-.29-6.14.09-8.99.13-.97,1.4-3.42.84-4.03ZM52.33,108.82c-.07.35-.18.68-.3,1.02.09-.34.19-.68.3-1.02ZM24.93,123.05c.02-.69.04-1.24.05-1.57.02-.38.05-.78.08-1.17-.04.91-.08,1.82-.13,2.74ZM30.38,127.9c0,.13,0,.26-.02.39,0-.64.01-1.28.02-1.92,0,.22,0,.45,0,.67,0,.29-.01.57-.01.86ZM45.46,125.64c-.02-.64-.03-1.27-.01-1.9.02-1.12.08-2.23.15-3.34-.02,1.75-.06,3.5-.14,5.25Z"/>
  <path d="M97.03,100.34c.2-.56.55-.32.3-1.07-.02-.07.07-.24-.03-.33-.12-.11-.37-.01-.5-.05-.15-.04-.15-.19-.56-.17-.57.03-5.94,1.31-6.45,1.54-1.06.47-.41,1.06.08,1.66.49,2.17.63,4.01.71,6.24l-.22,7.28c-.63-.66-.92-1.27-1.38-2.02-1.58-2.59-3.08-5.27-4.62-7.88-.36-.61-.66-1.4-1.02-2.01.41-.54-.58-1.46-1.1-1.28-1.05.38-6.91,1.05-7.29,1.57-.23.32.07.45.09.54.3,1.43.91,2.24.97,3.89.13,3.23-.38,6.55-.5,9.72-.1,2.79.35,6.4-.3,9.13-.18.76-1.4,2.28-.58,2.74.41.23,6.45-1.31,7.48-1.35.47-.17.13-.3.13-.32.07-.36.04-.37.02-.72-.06-1.06-.22-.94-.49-1.9-.59-2.08-.59-9.39-.36-11.73.05-.56.21-1.17.42-1.69.21.31.49.61.69.92,2.16,3.34,4.05,6.85,6.1,10.25.47.78,1.26,1.68,1.62,2.4.05.09.17.3.17.37,0,.02-.22.04-.19.17.38.04.75.03,1.13,0,.61-.07,3.83-.6,4.18-.76.13-.06.25-.08.29-.25.13-5.82-.2-11.63.18-17.45.13-2.06.37-5.6,1.04-7.43ZM81.11,117.05c0-1.58.07-3,.17-3.89-.03,1.28-.1,2.59-.17,3.89ZM82.52,102.77h0s0,.01.01.02c0,0,0-.01-.01-.02Z"/>
  <path d="M131.4,123.57c-1.64-.01-5.07.63-6.82.94-1.14.2-2.52.73-3.59.92-10.81,1.93-21.51,3.87-32.21,6.36-2.17.5-4.46.67-6.57,1.47-1.11.2-2.22.43-3.33.66-1.69.31-3.38.63-5.08.95-2.17.29-7.58.86-8.18,1.49-.07.07.1.18.1.18-.15.23-.16.21-.37.35-.02,0-.29-.3-.36.08-.05.27-.05.7.27.8.78-.24,1.56-.04,2.32-.1,2.72-.22,5.56-.56,8.29-.85,11.04-1.17,21.79-3.76,32.7-5.65.06-.29-.34-.19-.53-.19.58-.29,1.28-.26,1.91-.48,1.17-.39,1.86-.84,3.18-1.17.69.24,1.8-.05,2.53-.19,2.8-.57,5.71-1.28,8.49-1.93,2.63-.62,5.26-1.37,7.89-2.02.89-.75.56-1.61-.64-1.62Z"/>
  <path d="M68.78,101.39c.09-.23-.08-.18-.15-.2.27-.18.52-.1.8-.21.51-.21.86-.51,1.42-.66.2.25.67.11.96.06,1.14-.22,2.36-.53,3.52-.81,1.09-.27,2.22-.64,3.32-.93.49-.51.56-1.21.13-1.32-.34-.08-.93-.05-1.51.02l-3.57-6.26-.67-1.98-1.89-3.18c-.09-.44-.37-1.07-.52-1.43-.09-.22-.32-.49-.48-.74l-.8-1.75c-.93-2.12-1.92-4.24-3.13-6.42l-.5-.98c.25-1.02.46-2.04.59-3.05.13-.99.3-2.02.37-2.99.02-.27-.17-.52,0-.82-.09-.1-.44-.04-.65.01-.3.08-.04.13-.05.14-.1.09-.09.09-.27.18,0,0-.1-.04-.15,0-.48.29-.74,2.25-.89,3.04-.09.3-.18.6-.27.9h0s-.03.07-.03.07c-.16-.35-.31-.7-.48-1.05-.16-.55-.46-1.89-.95-2.14-.05-.03-.14-.01-.15-.01-1.03.29-.67,1.59-.52,2.26.25,1.11.69,2.26,1.2,3.42l-.08.22c-.12.27-.21.54-.29.8l-3.31,9.23-1.68,4.16-1.1,2.34.36-.12-3.57,10.29c-.78.06-1.54.17-1.74.42-.04.05,0,.15,0,.15-.1.17-.1.15-.21.24,0,0-.04-.26-.15.03-.08.21-.18.55-.08.65.34-.12.58.1.87.11,1.04.05,2.15.02,3.2.02,4.27,0,8.76-1.15,13.14-1.73ZM62.43,100.02c-.89.06-1.77.15-2.63.31.43-1.01.81-2.03,1.18-3.05l2.59-7.91c.08,0,1.23-5.34,1.4-5.33,1.74,3.3,3.11,11.24,4.36,14.6,0,.02.02.04.05.06-2.3.37-4.6.79-6.94,1.32Z"/>
  <path d="M72.64,129.77c-.14-1,.75-6.25.21-6.67-.17-.13-.36-.09-.55-.09-.07.24.28.23.35.37-.11.02-.28-.04-.36-.01-.36.13-.97.78-1.47,1.04l-8.52,1.9.34-4.83,3.34-.82,4.05.12c.52-1.31.11-2.76.11-4.05,0-.63.56-2.14-.02-2.63-.4-.33-.6.09-.79.17-2.08.86-4.31,1.39-6.54,1.78l.14-4.63s.07-.04.11-.06c2.38-.05,4.52-.84,6.93-.5.78.11,1.38.26,2.13.41.88-1.98.14-4.11.38-6.19-.23-.29-.18.13-.19.26-.19-.46-.46-.39-.89-.39l.73-.25c.02-.48-8.23,1.5-8.87,1.62-2.05.39-5.37.57-7.24,1.13-1.65.49-.56,1.28-.33,2.42.79,3.82.16,12.89-.08,17.12-.07,1.21-.04,2.65-.34,3.82-.14.53-1.21,2.15-.45,2.43.93.34,5.46-.89,6.75-1.13,3.13-.56,6.99-.88,9.96-1.67.43-.11,1.02-.2,1.1-.69ZM62.67,112.41c.02.1.03.2.02.3,0,.11-.03.27-.06.47.01-.27.02-.53.04-.76ZM55.93,122.69c.05-1.71.17-3.53.26-5.35-.01,1.77-.1,3.55-.26,5.35Z"/>
  <path d="M122.43,72.94c0,.44-.01.92,0,1.42.03-.81.05-1.63.06-2.42-.02.36-.04.7-.05.99Z"/>
  <path d="M77.78,78.69c-.03-.35-.44-.12-.53-.64-.13-.77.04-3.26.12-4.16.02-.24.2-.39.2-.43l-.15,4.86c.12,0,.25.03.36.01.33-.05,1.37-.8,1.83-1.03l8.36-2.42.06.03c-.2.67-.62,1.27-.94,1.89-.09.18-.47.6-.11.72-.19.35-.38.71-.57,1.06-.88,1.59-1.81,3.17-2.67,4.78l-.22-.15c-.59,1.38-1.23,2.75-1.93,4.08-.78,1.49-3.2,5.14-3.53,6.47-.16.66.64,3.16,1.11,3.42.32.17.61.1.94.07,1.3-.12,3.8-.82,5.22-1.14,3.64-.82,7.25-1.86,10.88-2.74.04-.01,1.2-.22.73-.43.15-.15.33-.29.55-.34.01,0,.08.17.17.19.39-1.69.27-3.55.34-5.31.02-.57.55-1.72-.57-1.7-.88.02-.61.47-.65.5-.06.06-.11.12-.19.17-.16.13-.38.22-.55.34-.1-.39-.51.03-.67.12-2.47,1.37-5.02,2.36-7.77,3.04h-.02s.95-1.95.95-1.95l.11-.72c.18-.32.43-.62.57-.88.12.4.42-.25.47-.34,1.87-3.36,3.99-7.11,5.6-10.57.11-.23.41-.61.05-.79.9-1.86,2.94-5.11,2.38-7.13,0-.03.38-.38-.42-.36l-7.54,1.56c-2.88.49-5.54,1.31-8.34,2-.73.18-3.47.53-3.8.79-.28.23-.35.54-.4.88-.11.73-.28,5.42-.15,5.91.1.35.4.33.68.32Z"/>
  <path d="M142,116.64c0-.09-.18-.16-.17-.17.23-1.21-.15-.78-.4-1.63-1.14-3.83-2.17-7.75-3.16-11.62.35-.16.14-.6.09-.87-.34-1.88-2.48-8.72-2.28-9.9.1-.56.62-1.15.41-1.89l-10.85,1.65c-.08.22.16.33.17.36.18.65.3.63.51,1.1-.22.52.16,1.06.14,1.72,0,.27-.04.52-.1.76-.02.08-.04.16-.06.24-.21.74-.56,1.36-.76,2.12-.85,3.26-1.42,6.61-2.71,9.74l-3.04,10.79c-.49,1-.89.92-.61,2.14,0,0-.35.12-.09.18.88-.12,6.73-1.37,7-1.66.53-.58-.63-1.65-.62-2.34,0-.37.69-3.06.88-3.18l7.56-1.38c.11.43.31.87.42,1.28.1.35.3.76.31,1.1,0,.1-.02.21-.03.31-.31,1.34-2.3,2.89.9,2.55,2.03-.22,4.43-1.03,6.48-1.39ZM133.07,108.36c-.33.22-1.85.46-2.36.56-1.14.22-2.32.23-3.44.62.76-2.89,1.28-5.88,2.06-8.76.23-.85.53-1.95.8-2.78.09-.26-.09-.32.37-.25.98,3.28,1.7,6.63,2.4,9.98.04.17.55.38.16.63ZM136.29,91.15c0,.11-.04.23-.09.35.03-.12.06-.23.09-.35ZM136.13,90.8s.02.03.03.04c-.24.02-.5.05-.74.08l.71-.12Z"/>
  <path d="M161.81,81.05c1.82-.88,2.98-2.21,4.08-3.84.16-.24.46-.53.56-.7.26.25.37-.17.47-.34,2.52-4.44,3.09-10.85.83-15.48-.09-.17-.17-.6-.44-.37-.11-.19-.37-.51-.52-.74-.63-.94-2.23-2.91-3.14-3.52.4-.16-.38-.49-.46-.53-3.33-1.61-6.07-1.83-9.43-.22-.09.04-.76.3-.37.44-1.84,1.08-2.89,2.49-4.26,4.01-3.24,3.6-3.32,10.31-1.9,14.98.01.05.32,1.25.52.82.09.21.39.52.52.74.67,1.2,2.18,3.09,3.3,3.88-.38.08.2.48.28.52,3.13,1.67,6.24,1.98,9.59.77.09-.03.76-.28.37-.44ZM154.05,75.6c-2.97-3.18-2.61-10.24-.31-13.7.63-.95,2.25-2.52,3.43-2.6,1.31-.08,3.41.83,4.34,1.75h0c.34.34.45.53.69.92,1.6,3.53,1.45,7.16.39,10.82,0,0,0,0,0,0h0c-.06.17-.13.41-.2.53-1.56,3.06-5.66,5.15-8.35,2.27Z"/>
  <path d="M155.48,86.66l-8.66,1.87c-.24.74.28.98.5,1.46l.46,2.8c-.65,6.71.27,14.5-1.02,21.03-.18.92-.79,1.87-.93,2.57-.04.18,0,.29.14.4v.18c-.71.53-1.88,1.76-2.6,2.44h-.18c.02-.19-.07-.19-.22-.16-1.92.39-2.92,1.02-5.09.7-.68-.1-1.3-.47-1.98-.59-.52-.09-.09.14-.1.18-.24.93-.47,3.67-.32,4.58.04.27.3.53.52.64.26.1.54.18.82.26-.33-.07-.61-.15-.82-.26l-.14.22c2.84.87,6.4.67,9.2-.35.77-.28.73-.54.87-.65,2.33-1.82,3.45-2.32,5.19-4.89.3-.44.25-.52.75-.88.57-.41,1.22-2.65,1.5-3.7,1.92-7.05,1.05-14.25,1.43-21.34,0-.02,0-.04,0-.07.05-1,.13-2,.25-2.99.05-.46.15-.9.32-1.33.21-.54.99-1.22.68-1.78-.15-.27-.2-.42-.57-.34ZM146.99,88.98h.02s.05.09.07.14c-.03-.05-.06-.09-.09-.14Z"/>
  <path d="M121.66,84.17c-.23.93-1.24,2.5-1.1,3.2.04.21.19.37.42.36,4.29-.89,8.72-1.24,12.99-2.17,1.09-.24,2.76-.63,3.77-1.01.37-.14.47.02.22-.4.05-.01.1-.02.15-.04,2.22-.82,3.67-1.81,5.33-3.44,0,0,.1.21.26.02,1.56-1.8,1.54-4.88.31-6.85-1.02-1.64-2.67-2.41-4.54-2.65l-.02-.04,1.44-1.08c1.18-1.41,2.43-3.14,1.94-5.08-.3-.06-.18.33-.19.53-.37-.76-.4-1.63-.83-2.37.43-.14-.03-.49-.16-.64-2.54-2.89-7.74-1.89-11.12-1.5-3.08.35-6.17.75-9.22,1.25l.17.28c.11.24-.57-.09-.2.71.13.28.33.5.52.74v.18c-.37.36.28.98.4,1.45.26.99.32,3.5.27,6.31.01-.18.03-.36.04-.55,0,1.76-.01,3.52-.07,5.28,0-.81-.02-1.58-.02-2.31-.1,3.28-.3,6.52-.44,7.93-.05.54-.2,1.36-.33,1.88ZM137.38,78.87c-.34.42-1.13,1.12-1.66,1.21h-.18c-2.3.83-4.66,1.23-7.08,1.21-.34-.18-.03-4.05.17-4.66,2.5-1.01,5.01-1.43,7.54-1.28.56.18,1.06.34,1.49.47.73,1.3.73,1.84-.27,3.05ZM128.82,65.7c.04-.05,1.06-.5,1.23-.55,1.72-.52,6.2-1.05,6.44,1.54.09.98-.04,1.65-.62,2.42-.55.73-1.4,1.18-2.21,1.55-.47.22-.97.42-1.47.58-.64.2-3.54,1.07-3.89.53-.26-.39.14-5.66.51-6.07Z"/>
</svg>